<svg width="32" height="32" viewBox="0 0 32 32" fill="none" xmlns="http://www.w3.org/2000/svg">
<path fill-rule="evenodd" clip-rule="evenodd" d="M5.68725 11.0399C6.26704 9.30991 8.38743 8.6789 9.81879 9.8104L11.3799 11.0445C12.2414 11.7255 12.5901 12.8694 12.2549 13.9152L11.6981 15.6524C11.639 15.8369 11.7005 16.0388 11.8525 16.1589L17.0969 20.3047C17.2489 20.4249 17.4596 20.4381 17.6255 20.338L19.1872 19.3953C20.1273 18.8278 21.3209 18.903 22.1823 19.584L23.5961 20.7016C24.9805 21.7959 24.9185 23.9153 23.4725 24.9268L19.4954 27.7089C18.5421 28.3758 17.2643 28.3384 16.3516 27.6169L4.9813 18.6285C4.10983 17.9396 3.76416 16.7781 4.11716 15.7248L5.68725 11.0399ZM8.47339 11.5123C8.22079 11.3127 7.84661 11.424 7.74429 11.7293L6.1742 16.4142C6.11191 16.6001 6.17291 16.805 6.3267 16.9266L17.697 25.915C17.8581 26.0423 18.0836 26.0489 18.2518 25.9312L22.2289 23.1491C22.4841 22.9706 22.495 22.5966 22.2507 22.4035L20.8369 21.2859C20.6849 21.1657 20.4743 21.1524 20.3084 21.2526L18.7466 22.1953C17.8065 22.7628 16.613 22.6876 15.7515 22.0066L10.5071 17.8609C9.64566 17.1799 9.29699 16.0359 9.63215 14.9902L10.1889 13.253C10.2481 13.0685 10.1865 12.8666 10.0345 12.7464L8.47339 11.5123Z" fill="#002BFF"/>
<path fill-rule="evenodd" clip-rule="evenodd" d="M20.6005 15.1961C20.2241 12.8125 17.947 11.0539 15.5867 11.3018L15.3601 9.14415C18.8885 8.77366 22.1901 11.354 22.7434 14.8576L20.6005 15.1961Z" fill="#002BFF"/>
<path fill-rule="evenodd" clip-rule="evenodd" d="M25.4314 14.2366C24.1628 9.72581 20.5457 6.66039 15.3183 6.66039V4.49091C21.5582 4.49091 25.9992 8.24237 27.5199 13.6492L25.4314 14.2366Z" fill="#002BFF"/>
</svg>
