<svg width="33" height="32" viewBox="0 0 33 32" fill="none" xmlns="http://www.w3.org/2000/svg">
<path fill-rule="evenodd" clip-rule="evenodd" d="M7.40965 7.95243C7.40965 6.20873 8.81846 4.79993 10.5622 4.79993H18.7285C20.4301 4.79993 21.8128 6.1416 21.8785 7.82685C21.0175 7.34864 20.027 7.07528 18.9729 7.07259C18.8952 7.05129 18.8132 7.03993 18.7285 7.03993H10.5622C10.0556 7.03993 9.64965 7.44586 9.64965 7.95243V24.031V24.2986C9.77112 24.7301 10.18 25.0036 10.6089 24.9516L10.6127 24.9512L10.6165 24.9507C11.9305 24.8006 13.2796 24.7257 14.6272 24.7257C15.9747 24.7257 17.3238 24.8006 18.6379 24.9507L18.6417 24.9512L18.6455 24.9516C19.1575 25.0137 19.641 24.6119 19.641 24.031V19.0853C20.4464 18.9943 21.2038 18.7446 21.881 18.368V24.031C21.881 25.9167 20.2619 27.4013 18.3804 27.1759C17.1548 27.036 15.8917 26.9657 14.6272 26.9657C13.3626 26.9657 12.0996 27.036 10.8739 27.1759C8.99244 27.4013 7.37335 25.9167 7.37335 24.031V22.911H7.40965V7.95243Z" fill="#002BFF"/>
<path fill-rule="evenodd" clip-rule="evenodd" d="M14.7577 22.0474C14.5686 22.0474 14.4154 22.2007 14.4154 22.3898C14.4154 22.5788 14.5686 22.7321 14.7577 22.7321C14.9467 22.7321 15.1 22.5788 15.1 22.3898C15.1 22.2007 14.9467 22.0474 14.7577 22.0474ZM14.7577 23.8505C15.5644 23.8505 16.2184 23.1965 16.2184 22.3898C16.2184 21.583 15.5644 20.929 14.7577 20.929C13.9509 20.929 13.2969 21.583 13.2969 22.3898C13.2969 23.1965 13.9509 23.8505 14.7577 23.8505Z" fill="#002BFF"/>
<path fill-rule="evenodd" clip-rule="evenodd" d="M12.1814 9.19568H17.2206V10.7957H13.7814V11.8893C14.1307 11.7436 14.5855 11.5933 15.1665 11.5933C15.9968 11.5933 16.6836 11.899 17.1583 12.4117C17.6216 12.9122 17.8395 13.5625 17.8395 14.1915C17.8395 15.6096 16.526 16.7897 14.9168 16.7897C13.95 16.7897 13.2818 16.4617 12.828 15.971C12.5031 15.6198 12.2966 15.1623 12.2006 14.9498C12.1819 14.9084 12.1674 14.8763 12.157 14.8561L13.581 14.1264C13.6404 14.2424 13.6853 14.3396 13.7246 14.4245C13.8123 14.6145 13.8718 14.7431 14.0026 14.8846C14.1263 15.0183 14.354 15.1897 14.9168 15.1897C15.8049 15.1897 16.2395 14.5716 16.2395 14.1915C16.2395 13.9215 16.1452 13.6726 15.9842 13.4987C15.8346 13.3371 15.5849 13.1933 15.1665 13.1933C14.8281 13.1933 14.57 13.2876 14.2631 13.424C14.2337 13.4371 14.2015 13.4519 14.1667 13.4679C13.8934 13.5936 13.4606 13.7927 12.9814 13.7927H12.1814V9.19568ZM19.7225 10.2656C20.435 9.5714 21.423 9.19568 22.5409 9.19568C24.4375 9.19568 25.4761 10.4651 25.7767 11.1865L24.2997 11.8019C24.1841 11.5243 23.641 10.7957 22.5409 10.7957C21.7857 10.7957 21.216 11.0443 20.839 11.4116C20.463 11.778 20.2254 12.3139 20.2254 12.9927C20.2254 14.1284 21.191 15.1897 22.2349 15.1897C23.2687 15.1897 23.8153 14.829 24.1177 14.4661C24.2168 14.3471 24.2961 14.22 24.3585 14.0924H21.9228V12.4924H26.1566V13.2924C26.1566 13.8961 25.9545 14.7612 25.3469 15.4904C24.7128 16.2513 23.6985 16.7897 22.2349 16.7897C20.1572 16.7897 18.6254 14.854 18.6254 12.9927C18.6254 11.9233 19.0091 10.9606 19.7225 10.2656Z" fill="#002BFF"/>
</svg>
