<svg width="24" height="22" viewBox="0 0 24 22" fill="none" xmlns="http://www.w3.org/2000/svg">
<path d="M11.7953 9.43756C11.3287 9.43756 10.8726 9.57591 10.4846 9.83513C10.0967 10.0943 9.79431 10.4628 9.61576 10.8938C9.43721 11.3249 9.39049 11.7992 9.48152 12.2569C9.57254 12.7145 9.79722 13.1348 10.1271 13.4647C10.4571 13.7947 10.8774 14.0193 11.335 14.1104C11.7926 14.2014 12.267 14.1547 12.698 13.9761C13.1291 13.7976 13.4975 13.4952 13.7567 13.1072C14.016 12.7193 14.1543 12.2632 14.1543 11.7966C14.1526 11.1715 13.9035 10.5724 13.4615 10.1304C13.0195 9.68834 12.4204 9.43925 11.7953 9.43756ZM18.8725 11.7966C18.8734 10.5542 18.5474 9.33347 17.927 8.25705C17.3066 7.18063 16.4138 6.28649 15.3383 5.66451C14.2629 5.04253 13.0426 4.71462 11.8002 4.71376C10.5578 4.71289 9.33707 5.0391 8.26072 5.65958C7.18436 6.28006 6.29032 7.17296 5.66844 8.24851C5.04657 9.32406 4.7188 10.5444 4.71806 11.7868C4.71732 13.0292 5.04365 14.2498 5.66425 15.3261C6.28484 16.4024 7.17783 17.2964 8.25345 17.9181L9.43362 15.8657C8.53415 15.3463 7.83117 14.5447 7.4337 13.5852C7.03624 12.6256 6.96651 11.5617 7.23532 10.5585C7.50414 9.55526 8.09648 8.66876 8.92047 8.03649C9.74447 7.40422 10.7541 7.0615 11.7927 7.0615C12.8313 7.0615 13.8409 7.40422 14.6649 8.03649C15.4889 8.66876 16.0812 9.55526 16.3501 10.5585C16.6189 11.5617 16.5491 12.6256 16.1517 13.5852C15.7542 14.5447 15.0512 15.3463 14.1518 15.8657L15.3319 17.9181C16.4076 17.2983 17.3011 16.4063 17.9228 15.3318C18.5445 14.2573 18.8712 13.038 18.8725 11.7966ZM11.7953 8.25595e-06C9.20001 -0.000538552 6.67706 0.855034 4.61749 2.4341C2.55792 4.01318 1.07676 6.22755 0.403606 8.73397C-0.269547 11.2404 -0.0970976 13.8989 0.894224 16.2973C1.88555 18.6958 3.64037 20.7002 5.88668 22L7.06686 19.9591C5.26737 18.9192 3.86123 17.3147 3.06645 15.3943C2.27166 13.4739 2.13265 11.345 2.67096 9.33759C3.20927 7.33017 4.39482 5.55643 6.0438 4.29138C7.69278 3.02633 9.71307 2.34064 11.7914 2.34064C13.8697 2.34064 15.89 3.02633 17.539 4.29138C19.188 5.55643 20.3735 7.33017 20.9119 9.33759C21.4502 11.345 21.3111 13.4739 20.5164 15.3943C19.7216 17.3147 18.3154 18.9192 16.516 19.9591L17.6961 22C19.9458 20.7031 21.7044 18.6997 22.6986 16.3009C23.6928 13.902 23.8671 11.242 23.1944 8.73388C22.5217 6.22579 21.0396 4.01003 18.9783 2.43072C16.9171 0.851409 14.392 -0.00306403 11.7953 8.25595e-06Z" fill="black"/>
</svg>
