<svg width="33" height="32" viewBox="0 0 33 32" fill="none" xmlns="http://www.w3.org/2000/svg">
<path fill-rule="evenodd" clip-rule="evenodd" d="M19.3855 14.0775C19.8766 14.0775 20.2747 14.4756 20.2747 14.9667V16.2885H23.8398C24.6642 16.2885 25.4562 16.6136 26.0411 17.1942C26.6262 17.7751 26.9561 18.5644 26.9561 19.3887V23.8108C26.9561 24.6351 26.6262 25.4243 26.0411 26.0052C25.4562 26.5859 24.6642 26.911 23.8398 26.911C23.1311 26.911 22.3995 26.7618 21.6114 26.6011C21.3703 26.5519 21.1241 26.5017 20.8715 26.4543C19.7387 26.2418 18.2532 26.0281 16.0448 26.0281C13.8388 26.0281 12.458 26.2413 11.3788 26.4529C11.1788 26.4922 10.9829 26.533 10.7891 26.5733C9.95961 26.7461 9.16805 26.911 8.24973 26.911C7.42529 26.911 6.63333 26.5859 6.04841 26.0052C5.46327 25.4243 5.13336 24.6351 5.13336 23.8108V19.3887C5.13336 18.5644 5.46327 17.7751 6.04841 17.1942C6.63333 16.6136 7.42529 16.2885 8.24973 16.2885H18.4963V14.9667C18.4963 14.4756 18.8944 14.0775 19.3855 14.0775ZM8.24973 18.0669C7.89281 18.0669 7.55179 18.2077 7.30137 18.4563C7.05117 18.7047 6.91179 19.0403 6.91179 19.3887V23.8108C6.91179 24.1592 7.05117 24.4948 7.30137 24.7431C7.5518 24.9918 7.89281 25.1326 8.24973 25.1326C8.9694 25.1326 9.54898 25.0127 10.3541 24.8462C10.5641 24.8028 10.7894 24.7562 11.0365 24.7077C12.2083 24.4779 13.705 24.2497 16.0448 24.2497C18.3821 24.2497 19.9788 24.4774 21.1994 24.7064C21.5441 24.771 21.8439 24.8319 22.1117 24.8862C22.8347 25.033 23.3252 25.1326 23.8398 25.1326C24.1967 25.1326 24.5377 24.9918 24.7881 24.7431C25.0383 24.4948 25.1777 24.1592 25.1777 23.8108V19.3887C25.1777 19.0403 25.0383 18.7047 24.7881 18.4563C24.5377 18.2077 24.1967 18.0669 23.8398 18.0669H8.24973ZM17.1583 20.7105C17.6494 20.7105 18.0475 21.1086 18.0475 21.5997V21.6108C18.0475 22.1019 17.6494 22.5 17.1583 22.5C16.6672 22.5 16.2691 22.1019 16.2691 21.6108V21.5997C16.2691 21.1086 16.6672 20.7105 17.1583 20.7105ZM21.6126 20.7105C22.1037 20.7105 22.5018 21.1086 22.5018 21.5997V21.6108C22.5018 22.1019 22.1037 22.5 21.6126 22.5C21.1215 22.5 20.7234 22.1019 20.7234 21.6108V21.5997C20.7234 21.1086 21.1215 20.7105 21.6126 20.7105Z" fill="#002BFF"/>
<path fill-rule="evenodd" clip-rule="evenodd" d="M19.5605 6.89842C16.123 6.89842 13.5398 8.92805 12.6588 10.3125L11.1584 9.35774C12.3375 7.5049 15.4638 5.12 19.5605 5.12C23.7035 5.12 26.5254 7.69775 27.5334 9.37764L26.0084 10.2926C25.2505 9.0295 22.9516 6.89842 19.5605 6.89842Z" fill="#002BFF"/>
<path fill-rule="evenodd" clip-rule="evenodd" d="M19.4134 11.6072C18.0569 11.6072 17.125 12.3784 16.4887 13.3966L14.9806 12.454C15.8157 11.1178 17.2383 9.82881 19.4134 9.82881C21.509 9.82881 23.2923 11.0429 24.0346 12.5276L22.444 13.323C22.0091 12.4532 20.8494 11.6072 19.4134 11.6072Z" fill="#002BFF"/>
</svg>
