<svg width="80" height="80" viewBox="0 0 80 80" fill="none" xmlns="http://www.w3.org/2000/svg">
<path d="M16.7582 41.1189C16.7582 32.2085 25.5936 24.2823 37.4379 24.2823C47.3039 24.2823 55.2108 29.8582 57.4571 36.8862C57.8719 38.1866 58.6545 39.2264 59.7583 39.9015C60.8169 40.5489 61.9921 40.7543 63.0588 40.7543C63.0641 40.7543 63.0672 40.7546 63.0746 40.7579C63.0841 40.7623 63.1055 40.7742 63.1317 40.8022C63.1851 40.8593 63.2418 40.9653 63.2418 41.1189V45.1107C63.2418 45.198 63.1742 45.6074 62.4498 46.3746C61.7629 47.1021 60.7455 47.8746 59.5152 48.6658C58.3004 49.4471 56.989 50.1772 55.7586 50.8561C54.7367 51.42 53.6818 51.9949 52.8905 52.5039L52.5681 52.7177L52.566 52.7191C51.9076 53.1735 51.3694 53.7815 50.9976 54.4898C50.6258 55.1981 50.4314 55.986 50.4314 56.786V60.5176H48.9244L47.6005 58.6282C47.5933 58.6179 47.5858 58.6077 47.5783 58.5975C47.14 57.9929 46.5291 57.5342 45.8262 57.2821L45.5603 57.1977C44.9367 57.0258 44.2774 57.02 43.648 57.182H43.6473C39.7007 58.1924 35.5692 58.2237 31.611 57.2764L31.2286 57.182C30.5087 56.9965 29.7496 57.0311 29.0497 57.2821C28.4345 57.5028 27.8899 57.8817 27.4698 58.378L27.2975 58.5975L27.2754 58.6282L25.9514 60.5176H24.4445V56.6923C24.4335 55.946 24.2589 55.2112 23.9341 54.5392C23.614 53.8771 23.1557 53.2915 22.5894 52.8228C18.9111 49.7308 16.7582 45.5865 16.7582 41.1189ZM12 41.1189C12 47.2019 14.9459 52.6137 19.5276 56.465C19.5361 56.4721 19.5448 56.4794 19.5534 56.4865C19.5942 56.5198 19.6276 56.5619 19.6506 56.6094C19.6736 56.657 19.6855 56.7096 19.6863 56.7624V62.8967C19.6863 64.2106 20.7515 65.2758 22.0654 65.2758H27.1896C27.9654 65.2758 28.6923 64.8974 29.1376 64.2621L30.7503 61.9609C35.1514 62.9747 39.7252 62.9748 44.1262 61.9609L45.7383 64.2621C46.1836 64.8974 46.9105 65.2758 47.6863 65.2758H52.8105C54.1244 65.2758 55.1896 64.2106 55.1896 62.8967V56.786C55.1896 56.7564 55.1965 56.7271 55.2103 56.7009C55.2241 56.6747 55.2445 56.6527 55.2689 56.6359V56.6351C55.835 56.2459 56.7749 55.7302 58.0576 55.0224C59.2798 54.348 60.722 53.5465 62.0888 52.6676C63.4401 51.7986 64.8325 50.7818 65.9097 49.6409C66.949 48.54 68 47.0014 68 45.1107V41.1189C68 38.4434 65.937 35.9962 63.0588 35.9962C62.5704 35.9962 62.3335 35.899 62.241 35.8425C62.1991 35.8168 62.1668 35.7877 62.1345 35.7453C62.1005 35.7006 62.0435 35.6103 61.9894 35.4407V35.44C58.9879 26.0456 48.9288 19.5242 37.4379 19.5242C23.8151 19.5242 12 28.805 12 41.1189Z" fill="white"/>
<path d="M38.7068 25.9295C36.5385 25.9407 34.4045 26.4738 32.486 27.4843C31.3235 28.0966 30.8772 29.5358 31.4895 30.6983C32.1018 31.8609 33.541 32.3071 34.7035 31.6949C35.9442 31.0414 37.3239 30.6957 38.7261 30.6876C40.0966 30.6888 41.4452 31.032 42.7551 31.7056C43.9236 32.3064 45.3583 31.8461 45.9591 30.6776C46.5599 29.5091 46.0996 28.0744 44.9312 27.4736C43.0049 26.483 40.9124 25.9295 38.7189 25.9295C38.7149 25.9295 38.7108 25.9294 38.7068 25.9295Z" fill="white"/>
<path d="M51.5065 34.8967C50.1926 34.8967 49.1274 35.9619 49.1274 37.2758C49.1274 38.5897 50.1926 39.6549 51.5065 39.6549H51.5294C52.8433 39.6549 53.9084 38.5897 53.9084 37.2758C53.9084 35.9619 52.8433 34.8967 51.5294 34.8967H51.5065Z" fill="white"/>
<path d="M16.7582 24.03C16.7582 21.4702 19.0019 19.1582 22.0654 19.1582C22.7032 19.1582 23.3138 19.2618 23.8776 19.4491C25.1244 19.8633 26.4707 19.1883 26.885 17.9415C27.2992 16.6946 26.6242 15.3483 25.3774 14.934C24.3373 14.5885 23.2209 14.4 22.0654 14.4C16.6381 14.4 12 18.5858 12 24.03C12.0001 27.8248 13.5353 30.8289 15.2591 32.5527C16.1882 33.4818 17.6942 33.4818 18.6233 32.5527C19.5524 31.6236 19.5524 30.1176 18.6233 29.1885C17.785 28.3502 16.7582 26.5532 16.7582 24.03Z" fill="white"/>
</svg>
