<svg width="473" height="265" viewBox="0 0 473 265" fill="none" xmlns="http://www.w3.org/2000/svg">
<path d="M39.0625 47.0933V58.8506H36.9062V42.9624H38.9263L45.0092 53.1762L51.0694 42.9624H53.0894V58.8506H50.9332V47.0479L45.7809 55.7637H44.2375L39.0625 47.0933ZM62.2923 59.1229C61.1272 59.1229 60.0831 58.8657 59.1601 58.3512C58.2522 57.8367 57.541 57.118 57.0265 56.195C56.5121 55.2719 56.2548 54.2279 56.2548 53.0627C56.2548 51.8976 56.5121 50.8535 57.0265 49.9305C57.5561 49.0075 58.275 48.2887 59.1828 47.7742C60.1059 47.2598 61.1423 47.0025 62.2923 47.0025C63.4575 47.0025 64.5015 47.2598 65.4246 47.7742C66.3476 48.2887 67.0589 49.0075 67.5582 49.9305C68.0727 50.8535 68.3298 51.8976 68.3298 53.0627C68.3298 54.243 68.0727 55.2946 67.5582 56.2177C67.0437 57.1256 66.3249 57.8367 65.4019 58.3512C64.494 58.8657 63.4575 59.1229 62.2923 59.1229ZM62.2923 57.2617C63.064 57.2617 63.7525 57.0877 64.3578 56.7397C64.963 56.3765 65.4321 55.8772 65.765 55.2417C66.113 54.6061 66.2871 53.8798 66.2871 53.0627C66.2871 52.2608 66.113 51.542 65.765 50.9065C65.4321 50.271 64.963 49.7792 64.3578 49.4312C63.7525 49.068 63.064 48.8864 62.2923 48.8864C61.5206 48.8864 60.8321 49.068 60.2269 49.4312C59.6216 49.7792 59.1525 50.271 58.8196 50.9065C58.4867 51.542 58.3203 52.2608 58.3203 53.0627C58.3203 53.8798 58.4867 54.6061 58.8196 55.2417C59.1525 55.8772 59.6216 56.3765 60.2269 56.7397C60.8321 57.0877 61.5206 57.2617 62.2923 57.2617ZM62.6782 42.0772H64.8344L63.1094 45.6634H61.3163L62.6782 42.0772ZM69.4733 47.2749H71.7202L75.3972 56.1723L79.0742 47.2749H81.3213L76.396 58.8506H74.3986L69.4733 47.2749ZM83.6488 47.2749H85.7369V58.8506H83.6488V47.2749ZM84.6702 45.391C84.2466 45.391 83.8909 45.2548 83.6034 44.9825C83.3159 44.695 83.1721 44.3394 83.1721 43.9157C83.1721 43.492 83.3159 43.1364 83.6034 42.8489C83.906 42.5614 84.2617 42.4177 84.6702 42.4177C85.0938 42.4177 85.4494 42.569 85.7369 42.8716C86.0244 43.1591 86.1683 43.5071 86.1683 43.9157C86.1683 44.3394 86.0169 44.695 85.7142 44.9825C85.4268 45.2548 85.0788 45.391 84.6702 45.391ZM92.9272 59.0548C91.868 59.0548 91.0282 58.7371 90.4078 58.1015C89.7874 57.466 89.4772 56.6035 89.4772 55.514V42.0545H91.5654V55.4006C91.5654 55.9756 91.7092 56.4219 91.9967 56.7397C92.2841 57.0575 92.6851 57.2163 93.1996 57.2163C93.7746 57.2163 94.3193 56.9742 94.8338 56.49L95.7645 57.92C94.9473 58.6765 94.0015 59.0548 92.9272 59.0548Z" fill="#F0C205"/>
<path d="M37.7974 117.091C37.7974 113.545 38.4594 110.566 39.7834 108.154C41.1074 105.743 42.6915 103.828 44.5357 102.409C46.3798 100.943 48.7914 99.3117 51.7704 97.5148C53.8983 96.2854 55.577 95.2215 56.8064 94.323C58.0832 93.4246 59.1234 92.3606 59.9273 91.1312C60.7785 89.9018 61.204 88.4832 61.204 86.8754C61.204 84.9367 60.613 83.4236 59.4308 82.336C58.2487 81.2484 56.6646 80.7046 54.6785 80.7046C50.8957 80.7046 48.1294 82.8088 46.3798 87.0173L37.5137 83.0453C39.0741 78.9314 41.3911 75.7868 44.4647 73.6117C47.5856 71.4365 51.2976 70.3489 55.6006 70.3489C58.9579 70.3489 61.8897 71.0109 64.3959 72.335C66.9493 73.6117 68.9117 75.4558 70.283 77.8674C71.7016 80.279 72.4109 83.0926 72.4109 86.308C72.4109 89.3343 71.7961 91.9351 70.5667 94.1102C69.3845 96.2854 67.966 98.0586 66.3109 99.4299C64.6559 100.801 62.5044 102.291 59.8564 103.898C57.6339 105.222 55.908 106.405 54.6785 107.445C53.4491 108.438 52.6216 109.573 52.196 110.85H73.6167V120.851H37.7974V117.091Z" fill="white"/>
<path d="M87.449 96.0917C86.0664 96.0917 84.9812 95.6978 84.1934 94.91C83.4056 94.1062 83.0117 93.0049 83.0117 91.6061V78.0048H86.7738V91.365C86.7738 91.8634 86.8944 92.2492 87.1355 92.5226C87.3928 92.7798 87.7465 92.9084 88.1966 92.9084C88.6629 92.9084 89.1211 92.7235 89.5712 92.3537L90.9458 94.8859C89.9169 95.6898 88.7513 96.0917 87.449 96.0917ZM92.4578 83.4308H96.2199V95.8506H92.4578V83.4308ZM93.9771 77.9324H97.4739L95.6411 81.8874H92.8678L93.9771 77.9324ZM99.4524 83.4308H103.021V85.1431C103.488 84.5161 104.042 84.0418 104.685 83.7202C105.344 83.3987 106.068 83.2379 106.856 83.2379C107.788 83.2379 108.608 83.4469 109.316 83.8649C110.023 84.2829 110.57 84.8778 110.955 85.6495C111.357 86.4051 111.558 87.2814 111.558 88.2781V95.8506H107.796V89.2187C107.796 88.3827 107.603 87.7396 107.217 87.2894C106.848 86.8232 106.317 86.59 105.626 86.59C104.886 86.59 104.299 86.8392 103.865 87.3376C103.431 87.836 103.214 88.5113 103.214 89.3634V95.8506H99.4524V83.4308ZM120.506 96.1641C119.139 96.1641 117.942 95.8988 116.913 95.3682C115.9 94.8216 115.112 94.0579 114.549 93.0772C113.987 92.0965 113.705 90.955 113.705 89.6528C113.705 88.3666 113.979 87.2331 114.525 86.2524C115.088 85.2556 115.868 84.4839 116.864 83.9373C117.877 83.3907 119.043 83.1173 120.361 83.1173C121.68 83.1173 122.821 83.3987 123.786 83.9614C124.766 84.508 125.514 85.2797 126.028 86.2765C126.559 87.2733 126.824 88.4148 126.824 89.701C126.824 90.0708 126.8 90.4647 126.752 90.8827H117.323C117.467 91.6383 117.837 92.2251 118.432 92.6431C119.027 93.0451 119.791 93.246 120.723 93.246C121.414 93.246 122.073 93.1255 122.7 92.8843C123.344 92.6431 123.906 92.2894 124.389 91.8232L126.173 93.9936C125.498 94.685 124.662 95.2235 123.665 95.6094C122.668 95.9792 121.615 96.1641 120.506 96.1641ZM123.376 88.447C123.215 87.6753 122.869 87.0804 122.339 86.6624C121.808 86.2444 121.157 86.0354 120.385 86.0354C119.565 86.0354 118.89 86.2524 118.36 86.6865C117.829 87.1045 117.491 87.6913 117.347 88.447H123.376ZM134.237 96.0917C133.095 96.0917 132.083 95.8184 131.198 95.2718C130.33 94.7251 129.647 93.9695 129.148 93.0049C128.666 92.0242 128.425 90.8987 128.425 89.6286C128.425 88.3585 128.666 87.2412 129.148 86.2765C129.647 85.2958 130.33 84.5321 131.198 83.9855C132.083 83.4389 133.095 83.1656 134.237 83.1656C135.121 83.1656 135.925 83.3344 136.649 83.672C137.388 83.9936 138.023 84.4678 138.554 85.0948V83.4308H142.002V91.6061C142.002 92.4904 142.396 92.9325 143.184 92.9325C143.506 92.9325 143.811 92.8602 144.1 92.7155L144.969 95.4406C144.149 95.8747 143.272 96.0917 142.34 96.0917C141.456 96.0917 140.708 95.8988 140.097 95.5129C139.486 95.111 139.068 94.5483 138.843 93.8248C138.313 94.5483 137.653 95.111 136.866 95.5129C136.078 95.8988 135.202 96.0917 134.237 96.0917ZM135.226 92.9808C136.174 92.9808 136.938 92.6753 137.517 92.0644C138.112 91.4373 138.409 90.6254 138.409 89.6286C138.409 88.6479 138.112 87.8521 137.517 87.2412C136.922 86.6141 136.158 86.3006 135.226 86.3006C134.293 86.3006 133.53 86.6141 132.935 87.2412C132.356 87.8521 132.067 88.6479 132.067 89.6286C132.067 90.6254 132.356 91.4373 132.935 92.0644C133.513 92.6753 134.277 92.9808 135.226 92.9808ZM151.203 96.1158C150.061 96.1158 149.008 95.9149 148.044 95.5129C147.079 95.0949 146.275 94.5081 145.632 93.7525L147.513 91.6544C147.979 92.1528 148.518 92.5467 149.129 92.8361C149.756 93.1094 150.399 93.246 151.058 93.246C151.605 93.246 152.039 93.1576 152.36 92.9808C152.682 92.8039 152.843 92.5708 152.843 92.2814C152.843 91.9438 152.666 91.6865 152.312 91.5097C151.959 91.3168 151.388 91.1078 150.6 90.8827C149.748 90.6415 149.032 90.3923 148.454 90.1351C147.875 89.8778 147.377 89.5 146.958 89.0016C146.557 88.4872 146.356 87.8199 146.356 87C146.356 85.8264 146.766 84.8939 147.586 84.2026C148.405 83.5112 149.507 83.1656 150.889 83.1656C151.902 83.1656 152.867 83.3585 153.783 83.7444C154.716 84.1302 155.504 84.6688 156.147 85.3601L154.314 87.3617C153.912 86.9598 153.422 86.6383 152.843 86.3971C152.28 86.1399 151.725 86.0113 151.179 86.0113C150.745 86.0113 150.407 86.0916 150.166 86.2524C149.925 86.3971 149.804 86.6061 149.804 86.8794C149.804 87.201 149.989 87.4582 150.359 87.6511C150.729 87.8441 151.307 88.0531 152.095 88.2781C152.979 88.5354 153.711 88.7926 154.29 89.0499C154.869 89.3071 155.367 89.6849 155.785 90.1833C156.219 90.6817 156.436 91.3328 156.436 92.1367C156.436 93.3425 155.954 94.3071 154.989 95.0306C154.041 95.7541 152.778 96.1158 151.203 96.1158ZM83.277 104.969H87.232V121.851H83.277V104.969ZM95.0795 122.092C93.6968 122.092 92.6116 121.698 91.8238 120.91C91.036 120.106 90.6421 119.005 90.6421 117.606V104.005H94.4042V117.365C94.4042 117.863 94.5248 118.249 94.766 118.523C95.0232 118.78 95.3769 118.908 95.8271 118.908C96.2933 118.908 96.7515 118.724 97.2017 118.354L98.5763 120.886C97.5473 121.69 96.3817 122.092 95.0795 122.092ZM100.088 109.431H103.85V121.851H100.088V109.431ZM101.969 107.887C101.31 107.887 100.763 107.686 100.329 107.285C99.9114 106.867 99.7024 106.336 99.7024 105.693C99.7024 105.034 99.9194 104.503 100.353 104.101C100.787 103.683 101.326 103.474 101.969 103.474C102.628 103.474 103.175 103.683 103.609 104.101C104.043 104.519 104.26 105.05 104.26 105.693C104.26 106.336 104.035 106.867 103.585 107.285C103.151 107.686 102.612 107.887 101.969 107.887ZM107.083 109.431H110.652V111.119C111.118 110.508 111.665 110.042 112.292 109.72C112.919 109.399 113.618 109.238 114.39 109.238C115.242 109.238 116.005 109.431 116.681 109.817C117.356 110.203 117.878 110.757 118.248 111.481C118.763 110.741 119.382 110.186 120.105 109.817C120.829 109.431 121.625 109.238 122.493 109.238C123.891 109.238 125.017 109.688 125.869 110.588C126.721 111.473 127.147 112.646 127.147 114.109V121.851H123.385V115.074C123.385 114.302 123.192 113.699 122.806 113.265C122.436 112.815 121.922 112.59 121.263 112.59C120.571 112.59 120.017 112.839 119.599 113.338C119.181 113.836 118.972 114.503 118.972 115.339V121.851H115.258V115.074C115.258 114.302 115.073 113.699 114.703 113.265C114.333 112.815 113.819 112.59 113.16 112.59C112.468 112.59 111.906 112.839 111.472 113.338C111.054 113.836 110.845 114.503 110.845 115.339V121.851H107.083V109.431ZM130.092 109.431H133.854V121.851H130.092V109.431ZM131.973 107.887C131.314 107.887 130.767 107.686 130.333 107.285C129.915 106.867 129.706 106.336 129.706 105.693C129.706 105.034 129.923 104.503 130.357 104.101C130.791 103.683 131.33 103.474 131.973 103.474C132.632 103.474 133.178 103.683 133.613 104.101C134.047 104.519 134.264 105.05 134.264 105.693C134.264 106.336 134.039 106.867 133.588 107.285C133.154 107.686 132.616 107.887 131.973 107.887ZM140.445 108.635H135.67V104.969H149.175V108.635H144.4V121.851H140.445V108.635ZM158.427 122.164C156.739 122.164 155.22 121.786 153.869 121.031C152.535 120.275 151.482 119.23 150.71 117.896C149.954 116.561 149.576 115.066 149.576 113.41C149.576 111.738 149.954 110.243 150.71 108.924C151.482 107.59 152.535 106.545 153.869 105.789C155.22 105.034 156.739 104.656 158.427 104.656C160.115 104.656 161.634 105.034 162.985 105.789C164.335 106.545 165.388 107.59 166.144 108.924C166.916 110.259 167.302 111.754 167.302 113.41C167.302 115.082 166.916 116.585 166.144 117.92C165.388 119.238 164.335 120.275 162.985 121.031C161.634 121.786 160.115 122.164 158.427 122.164ZM158.427 118.498C159.359 118.498 160.187 118.281 160.911 117.847C161.634 117.413 162.197 116.81 162.599 116.039C163.017 115.267 163.226 114.391 163.226 113.41C163.226 112.429 163.017 111.553 162.599 110.781C162.197 110.01 161.626 109.407 160.887 108.973C160.163 108.539 159.343 108.322 158.427 108.322C157.511 108.322 156.691 108.539 155.967 108.973C155.244 109.407 154.673 110.01 154.255 110.781C153.853 111.553 153.652 112.429 153.652 113.41C153.652 114.391 153.853 115.267 154.255 116.039C154.673 116.81 155.244 117.413 155.967 117.847C156.691 118.281 157.511 118.498 158.427 118.498ZM170.061 104.969H176.38C178.148 104.969 179.691 105.323 181.01 106.03C182.344 106.722 183.373 107.703 184.097 108.973C184.82 110.243 185.182 111.722 185.182 113.41C185.182 115.098 184.82 116.577 184.097 117.847C183.373 119.117 182.344 120.106 181.01 120.814C179.691 121.505 178.148 121.851 176.38 121.851H170.061V104.969ZM176.018 118.209C177.658 118.209 178.92 117.791 179.804 116.955C180.688 116.119 181.13 114.937 181.13 113.41C181.13 111.883 180.688 110.701 179.804 109.865C178.92 109.029 177.658 108.611 176.018 108.611H174.016V118.209H176.018ZM196.179 122.164C194.491 122.164 192.971 121.786 191.621 121.031C190.286 120.275 189.233 119.23 188.462 117.896C187.706 116.561 187.328 115.066 187.328 113.41C187.328 111.738 187.706 110.243 188.462 108.924C189.233 107.59 190.286 106.545 191.621 105.789C192.971 105.034 194.491 104.656 196.179 104.656C197.867 104.656 199.386 105.034 200.737 105.789C202.087 106.545 203.14 107.59 203.896 108.924C204.668 110.259 205.053 111.754 205.053 113.41C205.053 115.082 204.668 116.585 203.896 117.92C203.14 119.238 202.087 120.275 200.737 121.031C199.386 121.786 197.867 122.164 196.179 122.164ZM196.179 118.498C197.111 118.498 197.939 118.281 198.663 117.847C199.386 117.413 199.949 116.81 200.351 116.039C200.769 115.267 200.978 114.391 200.978 113.41C200.978 112.429 200.769 111.553 200.351 110.781C199.949 110.01 199.378 109.407 198.639 108.973C197.915 108.539 197.095 108.322 196.179 108.322C195.262 108.322 194.442 108.539 193.719 108.973C192.995 109.407 192.425 110.01 192.007 110.781C191.605 111.553 191.404 112.429 191.404 113.41C191.404 114.391 191.605 115.267 192.007 116.039C192.425 116.81 192.995 117.413 193.719 117.847C194.442 118.281 195.262 118.498 196.179 118.498Z" fill="white"/>
<path d="M36.7764 152.186H45.5645V154.016H38.7979V159.017H44.7772V160.826H38.7979V167.082H36.7764V152.186ZM47.8897 156.229H49.8474V167.082H47.8897V156.229ZM48.8473 154.463C48.4501 154.463 48.1167 154.336 47.8472 154.08C47.5777 153.811 47.4429 153.477 47.4429 153.08C47.4429 152.683 47.5777 152.35 47.8472 152.08C48.1309 151.811 48.4643 151.676 48.8473 151.676C49.2445 151.676 49.5779 151.818 49.8474 152.101C50.1169 152.371 50.2517 152.697 50.2517 153.08C50.2517 153.477 50.1098 153.811 49.8261 154.08C49.5566 154.336 49.2303 154.463 48.8473 154.463ZM59.4812 167.316C58.5875 167.316 57.7789 167.124 57.0554 166.741C56.3319 166.358 55.7361 165.826 55.268 165.145V167.082H53.438V151.335H55.3957V157.996C55.8638 157.357 56.4454 156.868 57.1405 156.527C57.8498 156.187 58.63 156.017 59.4812 156.017C60.4884 156.017 61.3892 156.258 62.1836 156.74C62.978 157.222 63.5951 157.889 64.0348 158.74C64.4746 159.591 64.6945 160.563 64.6945 161.656C64.6945 162.748 64.4746 163.727 64.0348 164.592C63.5951 165.443 62.978 166.11 62.1836 166.592C61.3892 167.075 60.4884 167.316 59.4812 167.316ZM59.0556 165.592C59.7791 165.592 60.4245 165.429 60.992 165.103C61.5594 164.762 61.9992 164.294 62.3113 163.698C62.6234 163.102 62.7794 162.422 62.7794 161.656C62.7794 160.904 62.6234 160.23 62.3113 159.634C61.9992 159.038 61.5594 158.577 60.992 158.251C60.4245 157.91 59.7791 157.74 59.0556 157.74C57.9491 157.74 57.0483 158.109 56.3532 158.847C55.6723 159.57 55.3318 160.506 55.3318 161.656C55.3318 162.422 55.4879 163.102 55.8 163.698C56.112 164.294 56.5518 164.762 57.1192 165.103C57.6867 165.429 58.3321 165.592 59.0556 165.592ZM67.5061 156.229H69.3999V157.91C70.0099 156.69 70.9816 156.08 72.3151 156.08C72.7832 156.08 73.2301 156.166 73.6557 156.336C74.0954 156.492 74.4785 156.712 74.8047 156.995L73.9323 158.591C73.3649 158.152 72.7336 157.932 72.0385 157.932C71.2157 157.932 70.5773 158.23 70.1234 158.825C69.6836 159.421 69.4638 160.279 69.4638 161.4V167.082H67.5061V156.229ZM80.5563 167.316C79.5349 167.316 78.627 167.075 77.8326 166.592C77.0382 166.11 76.4211 165.443 75.9814 164.592C75.5416 163.727 75.3217 162.748 75.3217 161.656C75.3217 160.563 75.5416 159.591 75.9814 158.74C76.4353 157.875 77.0595 157.208 77.8539 156.74C78.6483 156.258 79.5491 156.017 80.5563 156.017C81.45 156.017 82.2586 156.208 82.9821 156.591C83.7056 156.96 84.3014 157.485 84.7695 158.166V156.229H86.5995V164.252C86.5995 165.117 86.9896 165.55 87.7698 165.55C88.1528 165.55 88.4933 165.45 88.7912 165.252L89.3657 166.699C88.7841 167.082 88.1387 167.273 87.4294 167.273C86.6917 167.273 86.0959 167.082 85.6419 166.699C85.2022 166.301 84.9397 165.748 84.8546 165.039C84.3865 165.762 83.7836 166.323 83.0459 166.72C82.3083 167.117 81.4784 167.316 80.5563 167.316ZM80.9819 165.592C81.7054 165.592 82.3508 165.429 82.9183 165.103C83.4857 164.762 83.9255 164.294 84.2375 163.698C84.5496 163.102 84.7057 162.422 84.7057 161.656C84.7057 160.904 84.5496 160.23 84.2375 159.634C83.9255 159.038 83.4857 158.577 82.9183 158.251C82.3508 157.91 81.7054 157.74 80.9819 157.74C80.2584 157.74 79.613 157.91 79.0455 158.251C78.4781 158.577 78.0383 159.038 77.7262 159.634C77.4142 160.23 77.2581 160.904 77.2581 161.656C77.2581 162.819 77.5986 163.769 78.2795 164.507C78.9746 165.23 79.8754 165.592 80.9819 165.592Z" fill="#F0C205"/>
<path d="M9.65351 207.996H2.92969V201.774H9.65351V195H16.2268V201.774H22.9506V207.996H16.2268V214.82H9.65351V207.996Z" fill="#F0C205"/>
<path d="M51.3079 227.6C47.4304 227.6 43.9785 226.82 40.9522 225.259C37.9732 223.652 35.5379 221.335 33.6465 218.308L41.0231 212.563C42.2998 214.454 43.7184 215.849 45.2789 216.748C46.8393 217.599 48.6125 218.025 50.5986 218.025C53.152 218.025 55.1617 217.363 56.6275 216.039C58.0934 214.667 58.8264 212.823 58.8264 210.506C58.8264 208.189 58.1407 206.416 56.7694 205.186C55.3981 203.91 53.5303 203.271 51.166 203.271C48.2815 203.271 46.0118 204.241 44.3568 206.179L35.8453 203.981L37.8313 177.098H67.1251V186.816H47.194L46.4847 196.178C48.7544 195.091 51.2133 194.547 53.8613 194.547C57.0295 194.547 59.8194 195.209 62.231 196.533C64.6426 197.857 66.4867 199.725 67.7634 202.136C69.0875 204.548 69.7495 207.338 69.7495 210.506C69.7495 213.911 68.9692 216.913 67.4088 219.514C65.8956 222.068 63.7441 224.054 60.9542 225.472C58.1643 226.891 54.9489 227.6 51.3079 227.6ZM93.508 227.6C89.1104 227.6 85.3038 226.583 82.0884 224.55C78.9202 222.517 76.485 219.585 74.7827 215.755C73.1276 211.877 72.3001 207.267 72.3001 201.924C72.3001 196.58 73.1276 191.994 74.7827 188.163C76.485 184.286 78.9202 181.33 82.0884 179.297C85.3038 177.264 89.1104 176.247 93.508 176.247C97.9056 176.247 101.688 177.264 104.856 179.297C108.072 181.33 110.507 184.286 112.162 188.163C113.864 191.994 114.715 196.58 114.715 201.924C114.715 207.267 113.864 211.877 112.162 215.755C110.507 219.585 108.072 222.517 104.856 224.55C101.688 226.583 97.9056 227.6 93.508 227.6ZM93.508 217.457C96.5816 217.457 98.9695 216.133 100.671 213.485C102.374 210.837 103.225 206.983 103.225 201.924C103.225 196.864 102.374 193.01 100.671 190.362C98.9695 187.714 96.5816 186.39 93.508 186.39C90.4344 186.39 88.0464 187.714 86.3441 190.362C84.6418 193.01 83.7907 196.864 83.7907 201.924C83.7907 206.983 84.6418 210.837 86.3441 213.485C88.0464 216.133 90.4344 217.457 93.508 217.457ZM139.972 227.6C135.574 227.6 131.768 226.583 128.552 224.55C125.384 222.517 122.949 219.585 121.246 215.755C119.591 211.877 118.764 207.267 118.764 201.924C118.764 196.58 119.591 191.994 121.246 188.163C122.949 184.286 125.384 181.33 128.552 179.297C131.768 177.264 135.574 176.247 139.972 176.247C144.369 176.247 148.152 177.264 151.32 179.297C154.536 181.33 156.971 184.286 158.626 188.163C160.328 191.994 161.18 196.58 161.18 201.924C161.18 207.267 160.328 211.877 158.626 215.755C156.971 219.585 154.536 222.517 151.32 224.55C148.152 226.583 144.369 227.6 139.972 227.6ZM139.972 217.457C143.045 217.457 145.433 216.133 147.136 213.485C148.838 210.837 149.689 206.983 149.689 201.924C149.689 196.864 148.838 193.01 147.136 190.362C145.433 187.714 143.045 186.39 139.972 186.39C136.898 186.39 134.51 187.714 132.808 190.362C131.106 193.01 130.254 196.864 130.254 201.924C130.254 206.983 131.106 210.837 132.808 213.485C134.51 216.133 136.898 217.457 139.972 217.457Z" fill="white"/>
<path d="M171.246 212.998V226.213H165.833V202.97H170.648L178.385 215.555L186.122 202.97H190.936V226.213H185.524V212.965L179.945 222.03H176.824L171.246 212.998ZM206.353 226.545C205.157 226.545 204.051 226.324 203.032 225.881C202.036 225.417 201.173 224.763 200.442 223.922V226.213H195.661V201.641H200.841V210.939C201.549 210.231 202.368 209.688 203.298 209.312C204.228 208.936 205.246 208.747 206.353 208.747C207.925 208.747 209.319 209.124 210.537 209.876C211.754 210.629 212.695 211.681 213.359 213.031C214.045 214.381 214.388 215.92 214.388 217.646C214.388 219.395 214.045 220.945 213.359 222.295C212.695 223.623 211.754 224.664 210.537 225.417C209.319 226.169 207.925 226.545 206.353 226.545ZM204.991 222.262C206.275 222.262 207.316 221.841 208.113 221C208.932 220.137 209.341 219.019 209.341 217.646C209.341 216.296 208.932 215.2 208.113 214.359C207.316 213.496 206.275 213.064 204.991 213.064C203.685 213.064 202.623 213.496 201.804 214.359C201.007 215.2 200.608 216.296 200.608 217.646C200.608 219.019 201.018 220.137 201.837 221C202.656 221.841 203.707 222.262 204.991 222.262Z" fill="white"/>
<path d="M271.376 137.599C271.376 132.946 272.244 129.037 273.982 125.873C275.719 122.708 277.797 120.196 280.217 118.334C282.637 116.411 285.801 114.27 289.71 111.912C292.502 110.299 294.705 108.903 296.318 107.724C297.993 106.546 299.358 105.15 300.413 103.536C301.53 101.923 302.088 100.062 302.088 97.9522C302.088 95.4084 301.313 93.4229 299.762 91.9958C298.21 90.5688 296.132 89.8553 293.526 89.8553C288.562 89.8553 284.933 92.6163 282.637 98.1384L271.003 92.9265C273.051 87.5286 276.091 83.4025 280.124 80.5484C284.219 77.6943 289.09 76.2673 294.736 76.2673C299.141 76.2673 302.988 77.1359 306.276 78.8732C309.627 80.5484 312.202 82.9682 314.001 86.1325C315.862 89.2969 316.793 92.9886 316.793 97.2077C316.793 101.179 315.986 104.591 314.373 107.445C312.822 110.299 310.961 112.626 308.789 114.425C306.618 116.225 303.794 118.179 300.32 120.289C297.404 122.026 295.139 123.577 293.526 124.942C291.913 126.245 290.827 127.734 290.269 129.409H318.375V142.532H271.376V137.599ZM322.163 137.599C322.163 132.946 323.032 129.037 324.769 125.873C326.507 122.708 328.585 120.196 331.005 118.334C333.425 116.411 336.589 114.27 340.498 111.912C343.29 110.299 345.493 108.903 347.106 107.724C348.781 106.546 350.146 105.15 351.201 103.536C352.318 101.923 352.876 100.062 352.876 97.9522C352.876 95.4084 352.1 93.4229 350.549 91.9958C348.998 90.5688 346.92 89.8553 344.314 89.8553C339.35 89.8553 335.72 92.6163 333.425 98.1384L321.791 92.9265C323.839 87.5286 326.879 83.4025 330.912 80.5484C335.007 77.6943 339.877 76.2673 345.524 76.2673C349.929 76.2673 353.776 77.1359 357.064 78.8732C360.415 80.5484 362.989 82.9682 364.789 86.1325C366.65 89.2969 367.581 92.9886 367.581 97.2077C367.581 101.179 366.774 104.591 365.161 107.445C363.61 110.299 361.748 112.626 359.577 114.425C357.405 116.225 354.582 118.179 351.108 120.289C348.192 122.026 345.927 123.577 344.314 124.942C342.7 126.245 341.615 127.734 341.056 129.409H369.163V142.532H322.163V137.599Z" fill="white"/>
<path d="M395.614 110.376C392.096 110.376 389.054 109.453 386.487 107.608C383.921 105.762 382.133 103.267 381.123 100.124H376.105V95.7118H380.345C380.316 95.4523 380.301 95.1062 380.301 94.6736C380.301 94.2411 380.316 93.895 380.345 93.6355H376.105V89.18H381.123C382.133 86.0943 383.921 83.6286 386.487 81.783C389.083 79.9085 392.125 78.9713 395.614 78.9713C398.325 78.9713 400.762 79.5336 402.925 80.6583C405.117 81.783 406.977 83.4412 408.505 85.6329L404.006 89.3963C403.084 88.0697 401.944 87.0748 400.589 86.4115C399.234 85.7482 397.749 85.4166 396.134 85.4166C394.432 85.4166 392.933 85.7915 391.635 86.5413C390.337 87.2622 389.328 88.2716 388.607 89.5693H397.821V93.6355H387.439C387.41 93.8662 387.396 94.1978 387.396 94.6304C387.396 95.0918 387.41 95.4523 387.439 95.7118H397.821V99.7347H388.607C389.328 101.061 390.337 102.099 391.635 102.849C392.933 103.57 394.418 103.931 396.09 103.931C397.734 103.931 399.263 103.556 400.676 102.806C402.089 102.056 403.3 100.946 404.309 99.4752L408.981 103.195C407.453 105.502 405.535 107.276 403.228 108.516C400.95 109.756 398.412 110.376 395.614 110.376Z" fill="white"/>
<path d="M378.47 120.58H379.984L375.471 131.928H373.957L378.47 120.58ZM380.983 123.868H382.714V124.834C383.281 124.122 384.011 123.767 384.905 123.767C385.424 123.767 385.886 123.887 386.29 124.127C386.703 124.368 387.02 124.704 387.241 125.137C387.558 124.685 387.938 124.344 388.38 124.113C388.832 123.882 389.332 123.767 389.88 123.767C390.745 123.767 391.437 124.041 391.956 124.589C392.485 125.137 392.749 125.862 392.749 126.766V131.25H390.961V127.126C390.961 126.598 390.822 126.18 390.543 125.872C390.264 125.555 389.889 125.396 389.418 125.396C388.919 125.396 388.515 125.579 388.207 125.944C387.909 126.3 387.76 126.766 387.76 127.343V131.25H385.972V127.126C385.972 126.598 385.833 126.18 385.554 125.872C385.285 125.555 384.92 125.396 384.458 125.396C383.958 125.396 383.55 125.579 383.233 125.944C382.925 126.3 382.771 126.766 382.771 127.343V131.25H380.983V123.868ZM398.115 131.423C397.337 131.423 396.649 131.265 396.053 130.948C395.467 130.621 395.01 130.169 394.684 129.592C394.366 129.006 394.208 128.328 394.208 127.559C394.208 126.8 394.366 126.127 394.684 125.54C395.01 124.954 395.462 124.502 396.039 124.185C396.625 123.858 397.298 123.695 398.058 123.695C398.817 123.695 399.475 123.858 400.033 124.185C400.6 124.512 401.033 124.968 401.331 125.555C401.638 126.141 401.792 126.809 401.792 127.559C401.792 127.78 401.778 128.006 401.749 128.237H395.967C396.063 128.765 396.303 129.174 396.688 129.462C397.082 129.751 397.577 129.895 398.173 129.895C398.606 129.895 399.029 129.813 399.442 129.65C399.865 129.477 400.225 129.241 400.523 128.943L401.504 130.01C401.11 130.462 400.615 130.813 400.019 131.063C399.423 131.303 398.788 131.423 398.115 131.423ZM400.12 126.896C400.023 126.377 399.788 125.968 399.413 125.67C399.048 125.372 398.596 125.223 398.058 125.223C397.49 125.223 397.024 125.372 396.659 125.67C396.303 125.959 396.077 126.367 395.981 126.896H400.12ZM406.006 131.38C405.353 131.38 404.752 131.265 404.204 131.034C403.666 130.794 403.209 130.448 402.834 129.996L403.843 128.929C404.439 129.554 405.141 129.866 405.949 129.866C406.343 129.866 406.66 129.799 406.9 129.664C407.15 129.53 407.275 129.357 407.275 129.145C407.275 128.924 407.16 128.756 406.929 128.64C406.698 128.515 406.338 128.386 405.848 128.251C405.319 128.107 404.882 127.963 404.536 127.819C404.189 127.665 403.891 127.439 403.642 127.141C403.392 126.833 403.267 126.434 403.267 125.944C403.267 125.271 403.502 124.738 403.973 124.344C404.444 123.94 405.079 123.738 405.876 123.738C406.463 123.738 407.011 123.853 407.52 124.084C408.03 124.305 408.472 124.627 408.847 125.05L407.823 126.074C407.573 125.814 407.285 125.612 406.958 125.468C406.631 125.314 406.295 125.238 405.949 125.238C405.651 125.238 405.41 125.295 405.228 125.411C405.055 125.526 404.968 125.68 404.968 125.872C404.968 126.093 405.083 126.266 405.314 126.391C405.545 126.506 405.92 126.646 406.439 126.809C406.977 126.973 407.415 127.131 407.751 127.285C408.087 127.429 408.381 127.65 408.631 127.948C408.88 128.237 409.005 128.612 409.005 129.073C409.005 129.765 408.727 130.323 408.169 130.746C407.621 131.169 406.9 131.38 406.006 131.38Z" fill="white"/>
<path d="M268.571 175.846H271.381C272.245 175.846 272.997 176.018 273.638 176.363C274.286 176.707 274.782 177.195 275.126 177.827C275.471 178.46 275.643 179.2 275.643 180.048C275.643 180.897 275.471 181.637 275.126 182.269C274.782 182.902 274.286 183.39 273.638 183.734C272.997 184.078 272.245 184.25 271.381 184.25H268.571V175.846ZM271.297 183.17C272.305 183.17 273.085 182.898 273.638 182.353C274.19 181.801 274.466 181.033 274.466 180.048C274.466 179.064 274.19 178.299 273.638 177.755C273.085 177.203 272.305 176.927 271.297 176.927H269.712V183.17H271.297ZM277.315 178.127H278.42V184.25H277.315V178.127ZM277.856 177.131C277.632 177.131 277.443 177.059 277.291 176.915C277.139 176.763 277.063 176.575 277.063 176.351C277.063 176.126 277.139 175.938 277.291 175.786C277.451 175.634 277.64 175.558 277.856 175.558C278.08 175.558 278.268 175.638 278.42 175.798C278.572 175.95 278.648 176.134 278.648 176.351C278.648 176.575 278.568 176.763 278.408 176.915C278.256 177.059 278.072 177.131 277.856 177.131ZM282.355 184.358C281.835 184.358 281.355 184.262 280.915 184.07C280.482 183.87 280.114 183.57 279.81 183.17L280.446 182.509C280.951 183.11 281.575 183.41 282.319 183.41C282.727 183.41 283.056 183.334 283.304 183.182C283.552 183.03 283.676 182.83 283.676 182.582C283.676 182.333 283.56 182.145 283.328 182.017C283.096 181.881 282.735 181.745 282.247 181.609C281.799 181.481 281.435 181.357 281.155 181.237C280.875 181.109 280.634 180.925 280.434 180.685C280.234 180.445 280.134 180.132 280.134 179.748C280.134 179.228 280.322 178.812 280.698 178.5C281.083 178.187 281.591 178.031 282.223 178.031C283.208 178.031 284 178.412 284.6 179.172L283.952 179.796C283.744 179.532 283.492 179.328 283.196 179.184C282.9 179.04 282.591 178.968 282.271 178.968C281.935 178.968 281.671 179.036 281.479 179.172C281.287 179.3 281.191 179.476 281.191 179.7C281.191 179.948 281.307 180.14 281.539 180.276C281.771 180.404 282.135 180.545 282.631 180.697C283.088 180.833 283.452 180.965 283.724 181.093C284.004 181.213 284.244 181.393 284.444 181.633C284.644 181.865 284.744 182.169 284.744 182.545C284.744 183.09 284.524 183.53 284.084 183.866C283.644 184.194 283.068 184.358 282.355 184.358ZM289.718 184.382C289.237 184.382 288.797 184.286 288.397 184.094C288.005 183.902 287.677 183.626 287.412 183.266V187.012H286.308V178.127H287.34V179.22C287.605 178.836 287.941 178.54 288.349 178.331C288.757 178.115 289.213 178.007 289.718 178.007C290.286 178.007 290.794 178.143 291.242 178.416C291.691 178.688 292.039 179.064 292.287 179.544C292.535 180.024 292.659 180.573 292.659 181.189C292.659 181.813 292.535 182.369 292.287 182.858C292.039 183.338 291.691 183.714 291.242 183.986C290.794 184.25 290.286 184.382 289.718 184.382ZM289.477 183.41C289.886 183.41 290.25 183.318 290.57 183.134C290.89 182.942 291.138 182.678 291.314 182.341C291.49 182.005 291.578 181.621 291.578 181.189C291.578 180.765 291.49 180.384 291.314 180.048C291.138 179.712 290.89 179.452 290.57 179.268C290.25 179.076 289.886 178.98 289.477 178.98C289.069 178.98 288.705 179.076 288.385 179.268C288.065 179.452 287.817 179.712 287.641 180.048C287.464 180.384 287.376 180.765 287.376 181.189C287.376 181.845 287.569 182.381 287.953 182.798C288.345 183.206 288.853 183.41 289.477 183.41ZM297.042 184.394C296.425 184.394 295.873 184.258 295.385 183.986C294.904 183.714 294.528 183.334 294.256 182.846C293.984 182.357 293.848 181.805 293.848 181.189C293.848 180.573 293.984 180.02 294.256 179.532C294.536 179.044 294.917 178.664 295.397 178.392C295.885 178.119 296.433 177.983 297.042 177.983C297.658 177.983 298.21 178.119 298.698 178.392C299.187 178.664 299.563 179.044 299.827 179.532C300.099 180.02 300.235 180.573 300.235 181.189C300.235 181.813 300.099 182.369 299.827 182.858C299.555 183.338 299.175 183.714 298.686 183.986C298.206 184.258 297.658 184.394 297.042 184.394ZM297.042 183.41C297.45 183.41 297.814 183.318 298.134 183.134C298.454 182.942 298.702 182.678 298.878 182.341C299.062 182.005 299.155 181.621 299.155 181.189C299.155 180.765 299.062 180.384 298.878 180.048C298.702 179.712 298.454 179.452 298.134 179.268C297.814 179.076 297.45 178.98 297.042 178.98C296.633 178.98 296.269 179.076 295.949 179.268C295.629 179.452 295.381 179.712 295.205 180.048C295.029 180.384 294.941 180.765 294.941 181.189C294.941 181.621 295.029 182.005 295.205 182.341C295.381 182.678 295.629 182.942 295.949 183.134C296.269 183.318 296.633 183.41 297.042 183.41ZM301.819 178.127H302.888V179.172C303.12 178.804 303.412 178.524 303.764 178.331C304.116 178.139 304.516 178.043 304.965 178.043C305.453 178.043 305.881 178.151 306.249 178.368C306.617 178.584 306.902 178.892 307.102 179.292C307.31 179.684 307.414 180.14 307.414 180.661V184.25H306.309V180.865C306.309 180.296 306.165 179.856 305.877 179.544C305.597 179.224 305.209 179.064 304.713 179.064C304.16 179.064 303.724 179.248 303.404 179.616C303.084 179.976 302.924 180.461 302.924 181.069V184.25H301.819V178.127ZM309.252 178.127H310.357V184.25H309.252V178.127ZM309.793 177.131C309.569 177.131 309.38 177.059 309.228 176.915C309.076 176.763 309 176.575 309 176.351C309 176.126 309.076 175.938 309.228 175.786C309.388 175.634 309.577 175.558 309.793 175.558C310.017 175.558 310.205 175.638 310.357 175.798C310.509 175.95 310.585 176.134 310.585 176.351C310.585 176.575 310.505 176.763 310.345 176.915C310.193 177.059 310.009 177.131 309.793 177.131ZM315.792 184.382C315.288 184.382 314.832 184.274 314.424 184.058C314.016 183.842 313.679 183.542 313.415 183.158V184.25H312.383V175.366H313.487V179.124C313.751 178.764 314.08 178.488 314.472 178.295C314.872 178.103 315.312 178.007 315.792 178.007C316.361 178.007 316.869 178.143 317.317 178.416C317.765 178.688 318.114 179.064 318.362 179.544C318.61 180.024 318.734 180.573 318.734 181.189C318.734 181.805 318.61 182.357 318.362 182.846C318.114 183.326 317.765 183.702 317.317 183.974C316.869 184.246 316.361 184.382 315.792 184.382ZM315.552 183.41C315.961 183.41 316.325 183.318 316.645 183.134C316.965 182.942 317.213 182.678 317.389 182.341C317.565 182.005 317.653 181.621 317.653 181.189C317.653 180.765 317.565 180.384 317.389 180.048C317.213 179.712 316.965 179.452 316.645 179.268C316.325 179.076 315.961 178.98 315.552 178.98C314.928 178.98 314.42 179.188 314.028 179.604C313.643 180.012 313.451 180.541 313.451 181.189C313.451 181.621 313.539 182.005 313.715 182.341C313.892 182.678 314.14 182.942 314.46 183.134C314.78 183.318 315.144 183.41 315.552 183.41ZM322.121 184.358C321.561 184.358 321.117 184.19 320.788 183.854C320.46 183.518 320.296 183.062 320.296 182.485V175.366H321.401V182.425C321.401 182.73 321.477 182.966 321.629 183.134C321.781 183.302 321.993 183.386 322.265 183.386C322.569 183.386 322.857 183.258 323.13 183.002L323.622 183.758C323.19 184.158 322.689 184.358 322.121 184.358ZM327.208 184.394C326.576 184.394 326.019 184.262 325.539 183.998C325.059 183.726 324.687 183.35 324.423 182.87C324.158 182.381 324.026 181.821 324.026 181.189C324.026 180.565 324.158 180.012 324.423 179.532C324.687 179.044 325.055 178.664 325.527 178.392C326.007 178.119 326.552 177.983 327.16 177.983C327.776 177.983 328.312 178.119 328.769 178.392C329.233 178.664 329.589 179.04 329.837 179.52C330.093 180 330.221 180.545 330.221 181.153C330.221 181.257 330.213 181.413 330.197 181.621H325.119C325.175 182.181 325.391 182.626 325.767 182.954C326.151 183.274 326.644 183.434 327.244 183.434C327.644 183.434 328.028 183.358 328.396 183.206C328.765 183.054 329.081 182.834 329.345 182.545L329.969 183.206C329.641 183.582 329.237 183.874 328.757 184.082C328.276 184.29 327.76 184.394 327.208 184.394ZM329.201 180.769C329.145 180.224 328.929 179.784 328.553 179.448C328.184 179.112 327.72 178.944 327.16 178.944C326.592 178.944 326.123 179.112 325.755 179.448C325.395 179.776 325.183 180.216 325.119 180.769H329.201ZM337.443 184.394C336.811 184.394 336.255 184.262 335.774 183.998C335.294 183.726 334.922 183.35 334.658 182.87C334.394 182.381 334.262 181.821 334.262 181.189C334.262 180.565 334.394 180.012 334.658 179.532C334.922 179.044 335.29 178.664 335.762 178.392C336.243 178.119 336.787 177.983 337.395 177.983C338.011 177.983 338.548 178.119 339.004 178.392C339.468 178.664 339.824 179.04 340.072 179.52C340.329 180 340.457 180.545 340.457 181.153C340.457 181.257 340.449 181.413 340.433 181.621H335.354C335.41 182.181 335.626 182.626 336.003 182.954C336.387 183.274 336.879 183.434 337.479 183.434C337.879 183.434 338.264 183.358 338.632 183.206C339 183.054 339.316 182.834 339.58 182.545L340.205 183.206C339.876 183.582 339.472 183.874 338.992 184.082C338.512 184.29 337.995 184.394 337.443 184.394ZM339.436 180.769C339.38 180.224 339.164 179.784 338.788 179.448C338.42 179.112 337.955 178.944 337.395 178.944C336.827 178.944 336.359 179.112 335.991 179.448C335.63 179.776 335.418 180.216 335.354 180.769H339.436ZM341.987 178.127H343.055V179.172C343.287 178.804 343.579 178.524 343.932 178.331C344.284 178.139 344.684 178.043 345.132 178.043C345.62 178.043 346.049 178.151 346.417 178.368C346.785 178.584 347.069 178.892 347.269 179.292C347.477 179.684 347.581 180.14 347.581 180.661V184.25H346.477V180.865C346.477 180.296 346.333 179.856 346.045 179.544C345.764 179.224 345.376 179.064 344.88 179.064C344.328 179.064 343.892 179.248 343.571 179.616C343.251 179.976 343.091 180.461 343.091 181.069V184.25H341.987V178.127ZM351.87 183.47L355.184 179.076H351.99V178.127H356.552V178.92L353.239 183.302H356.66V184.25H351.87V183.47ZM360.751 184.394C360.135 184.394 359.583 184.258 359.095 183.986C358.614 183.714 358.238 183.334 357.966 182.846C357.694 182.357 357.558 181.805 357.558 181.189C357.558 180.573 357.694 180.02 357.966 179.532C358.246 179.044 358.626 178.664 359.107 178.392C359.595 178.119 360.143 177.983 360.751 177.983C361.368 177.983 361.92 178.119 362.408 178.392C362.896 178.664 363.273 179.044 363.537 179.532C363.809 180.02 363.945 180.573 363.945 181.189C363.945 181.813 363.809 182.369 363.537 182.858C363.265 183.338 362.884 183.714 362.396 183.986C361.916 184.258 361.368 184.394 360.751 184.394ZM360.751 183.41C361.16 183.41 361.524 183.318 361.844 183.134C362.164 182.942 362.412 182.678 362.588 182.341C362.772 182.005 362.864 181.621 362.864 181.189C362.864 180.765 362.772 180.384 362.588 180.048C362.412 179.712 362.164 179.452 361.844 179.268C361.524 179.076 361.16 178.98 360.751 178.98C360.343 178.98 359.979 179.076 359.659 179.268C359.339 179.452 359.091 179.712 358.915 180.048C358.738 180.384 358.65 180.765 358.65 181.189C358.65 181.621 358.738 182.005 358.915 182.341C359.091 182.678 359.339 182.942 359.659 183.134C359.979 183.318 360.343 183.41 360.751 183.41ZM365.529 178.127H366.598V179.172C366.83 178.804 367.122 178.524 367.474 178.331C367.826 178.139 368.226 178.043 368.675 178.043C369.163 178.043 369.591 178.151 369.959 178.368C370.327 178.584 370.612 178.892 370.812 179.292C371.02 179.684 371.124 180.14 371.124 180.661V184.25H370.019V180.865C370.019 180.296 369.875 179.856 369.587 179.544C369.307 179.224 368.919 179.064 368.422 179.064C367.87 179.064 367.434 179.248 367.114 179.616C366.794 179.976 366.634 180.461 366.634 181.069V184.25H365.529V178.127ZM375.542 184.382C374.966 184.382 374.453 184.246 374.005 183.974C373.557 183.702 373.209 183.326 372.961 182.846C372.713 182.357 372.588 181.805 372.588 181.189C372.588 180.573 372.713 180.024 372.961 179.544C373.217 179.056 373.569 178.68 374.017 178.416C374.465 178.143 374.974 178.007 375.542 178.007C376.046 178.007 376.502 178.115 376.911 178.331C377.319 178.54 377.655 178.836 377.919 179.22V178.127H378.951V182.654C378.951 183.142 379.172 183.386 379.612 183.386C379.828 183.386 380.02 183.33 380.188 183.218L380.512 184.034C380.184 184.25 379.82 184.358 379.42 184.358C379.004 184.358 378.667 184.25 378.411 184.034C378.163 183.81 378.015 183.498 377.967 183.098C377.703 183.506 377.363 183.822 376.947 184.046C376.53 184.27 376.062 184.382 375.542 184.382ZM375.782 183.41C376.19 183.41 376.554 183.318 376.874 183.134C377.195 182.942 377.443 182.678 377.619 182.341C377.795 182.005 377.883 181.621 377.883 181.189C377.883 180.765 377.795 180.384 377.619 180.048C377.443 179.712 377.195 179.452 376.874 179.268C376.554 179.076 376.19 178.98 375.782 178.98C375.374 178.98 375.01 179.076 374.689 179.268C374.369 179.452 374.121 179.712 373.945 180.048C373.769 180.384 373.681 180.765 373.681 181.189C373.681 181.845 373.873 182.381 374.257 182.798C374.649 183.206 375.158 183.41 375.782 183.41ZM383.595 184.358C383.074 184.358 382.594 184.262 382.154 184.07C381.722 183.87 381.354 183.57 381.049 183.17L381.686 182.509C382.19 183.11 382.814 183.41 383.559 183.41C383.967 183.41 384.295 183.334 384.543 183.182C384.791 183.03 384.915 182.83 384.915 182.582C384.915 182.333 384.799 182.145 384.567 182.017C384.335 181.881 383.975 181.745 383.487 181.609C383.038 181.481 382.674 181.357 382.394 181.237C382.114 181.109 381.874 180.925 381.674 180.685C381.474 180.445 381.374 180.132 381.374 179.748C381.374 179.228 381.562 178.812 381.938 178.5C382.322 178.187 382.83 178.031 383.463 178.031C384.447 178.031 385.239 178.412 385.84 179.172L385.191 179.796C384.983 179.532 384.731 179.328 384.435 179.184C384.139 179.04 383.831 178.968 383.511 178.968C383.174 178.968 382.91 179.036 382.718 179.172C382.526 179.3 382.43 179.476 382.43 179.7C382.43 179.948 382.546 180.14 382.778 180.276C383.01 180.404 383.375 180.545 383.871 180.697C384.327 180.833 384.691 180.965 384.963 181.093C385.243 181.213 385.484 181.393 385.684 181.633C385.884 181.865 385.984 182.169 385.984 182.545C385.984 183.09 385.764 183.53 385.324 183.866C384.883 184.194 384.307 184.358 383.595 184.358ZM393.011 177.995C393.491 177.995 393.928 178.091 394.32 178.283C394.72 178.476 395.052 178.752 395.316 179.112V175.366H396.421V184.25H395.388V183.158C395.124 183.542 394.788 183.842 394.38 184.058C393.972 184.266 393.515 184.37 393.011 184.37C392.443 184.37 391.935 184.234 391.486 183.962C391.038 183.69 390.69 183.314 390.442 182.834C390.194 182.353 390.07 181.805 390.07 181.189C390.07 180.565 390.194 180.012 390.442 179.532C390.69 179.044 391.038 178.668 391.486 178.404C391.935 178.131 392.443 177.995 393.011 177.995ZM393.251 178.968C392.843 178.968 392.479 179.064 392.159 179.256C391.839 179.44 391.59 179.7 391.414 180.036C391.238 180.372 391.15 180.757 391.15 181.189C391.15 181.613 391.238 181.993 391.414 182.329C391.59 182.666 391.839 182.93 392.159 183.122C392.479 183.306 392.843 183.398 393.251 183.398C393.659 183.398 394.024 183.306 394.344 183.122C394.664 182.93 394.912 182.666 395.088 182.329C395.264 181.993 395.352 181.613 395.352 181.189C395.352 180.533 395.156 180 394.764 179.592C394.38 179.176 393.875 178.968 393.251 178.968ZM401.177 184.394C400.544 184.394 399.988 184.262 399.508 183.998C399.028 183.726 398.655 183.35 398.391 182.87C398.127 182.381 397.995 181.821 397.995 181.189C397.995 180.565 398.127 180.012 398.391 179.532C398.655 179.044 399.024 178.664 399.496 178.392C399.976 178.119 400.52 177.983 401.129 177.983C401.745 177.983 402.281 178.119 402.737 178.392C403.202 178.664 403.558 179.04 403.806 179.52C404.062 180 404.19 180.545 404.19 181.153C404.19 181.257 404.182 181.413 404.166 181.621H399.088C399.144 182.181 399.36 182.626 399.736 182.954C400.12 183.274 400.612 183.434 401.213 183.434C401.613 183.434 401.997 183.358 402.365 183.206C402.733 183.054 403.049 182.834 403.314 182.545L403.938 183.206C403.61 183.582 403.206 183.874 402.725 184.082C402.245 184.29 401.729 184.394 401.177 184.394ZM403.169 180.769C403.113 180.224 402.897 179.784 402.521 179.448C402.153 179.112 401.689 178.944 401.129 178.944C400.56 178.944 400.092 179.112 399.724 179.448C399.364 179.776 399.152 180.216 399.088 180.769H403.169ZM268.651 190.045H275.855V192.27H271.277V194.959H275.23V197.12H271.277V201.25H268.651V190.045ZM277.34 193.006H279.838V201.25H277.34V193.006ZM278.589 191.982C278.151 191.982 277.789 191.849 277.5 191.582C277.223 191.304 277.084 190.952 277.084 190.525C277.084 190.088 277.228 189.736 277.516 189.469C277.805 189.191 278.162 189.053 278.589 189.053C279.026 189.053 279.389 189.191 279.677 189.469C279.966 189.746 280.11 190.098 280.11 190.525C280.11 190.952 279.96 191.304 279.661 191.582C279.373 191.849 279.016 191.982 278.589 191.982ZM287.138 201.41C286.561 201.41 286.028 201.304 285.537 201.09C285.057 200.866 284.64 200.551 284.288 200.146V201.25H281.983V189.405H284.48V193.887C284.822 193.545 285.217 193.284 285.665 193.102C286.113 192.921 286.604 192.83 287.138 192.83C287.895 192.83 288.568 193.012 289.155 193.375C289.742 193.737 290.195 194.244 290.515 194.895C290.846 195.546 291.011 196.288 291.011 197.12C291.011 197.963 290.846 198.71 290.515 199.361C290.195 200.002 289.742 200.503 289.155 200.866C288.568 201.229 287.895 201.41 287.138 201.41ZM286.481 199.345C287.1 199.345 287.602 199.143 287.986 198.737C288.381 198.321 288.578 197.782 288.578 197.12C288.578 196.469 288.381 195.941 287.986 195.536C287.602 195.119 287.1 194.911 286.481 194.911C285.852 194.911 285.339 195.119 284.945 195.536C284.56 195.941 284.368 196.469 284.368 197.12C284.368 197.782 284.566 198.321 284.961 198.737C285.355 199.143 285.862 199.345 286.481 199.345ZM292.629 193.006H294.998V194.127C295.243 193.732 295.553 193.428 295.926 193.214C296.3 193.001 296.721 192.894 297.191 192.894C297.853 192.894 298.445 193.092 298.968 193.487L298.023 195.52C297.661 195.263 297.26 195.135 296.823 195.135C296.289 195.135 295.873 195.317 295.574 195.68C295.275 196.032 295.126 196.528 295.126 197.168V201.25H292.629V193.006ZM302.946 201.41C302.189 201.41 301.516 201.229 300.93 200.866C300.353 200.503 299.9 200.002 299.569 199.361C299.249 198.71 299.089 197.963 299.089 197.12C299.089 196.277 299.249 195.536 299.569 194.895C299.9 194.244 300.353 193.737 300.93 193.375C301.516 193.012 302.189 192.83 302.946 192.83C303.533 192.83 304.067 192.942 304.547 193.166C305.038 193.38 305.46 193.695 305.812 194.111V193.006H308.101V198.433C308.101 199.02 308.362 199.313 308.885 199.313C309.099 199.313 309.302 199.265 309.494 199.169L310.07 200.978C309.526 201.266 308.944 201.41 308.325 201.41C307.738 201.41 307.242 201.282 306.836 201.026C306.431 200.759 306.153 200.386 306.004 199.906C305.652 200.386 305.214 200.759 304.691 201.026C304.168 201.282 303.587 201.41 302.946 201.41ZM303.603 199.345C304.232 199.345 304.739 199.143 305.124 198.737C305.518 198.321 305.716 197.782 305.716 197.12C305.716 196.469 305.518 195.941 305.124 195.536C304.729 195.119 304.222 194.911 303.603 194.911C302.984 194.911 302.477 195.119 302.082 195.536C301.698 195.941 301.506 196.469 301.506 197.12C301.506 197.782 301.698 198.321 302.082 198.737C302.466 199.143 302.973 199.345 303.603 199.345ZM318.939 201.394C316.975 201.394 315.401 200.685 314.216 199.265L315.737 197.745C316.601 198.684 317.653 199.153 318.891 199.153C319.467 199.153 319.91 199.063 320.219 198.881C320.529 198.689 320.683 198.428 320.683 198.097C320.683 197.766 320.518 197.51 320.187 197.328C319.856 197.147 319.328 196.944 318.602 196.72C317.823 196.485 317.183 196.251 316.682 196.016C316.18 195.781 315.742 195.434 315.369 194.975C315.006 194.506 314.825 193.903 314.825 193.166C314.825 192.526 314.985 191.961 315.305 191.47C315.636 190.968 316.1 190.584 316.698 190.317C317.306 190.04 318.015 189.901 318.827 189.901C319.691 189.901 320.491 190.066 321.228 190.397C321.975 190.728 322.615 191.198 323.149 191.806L321.644 193.343C321.302 192.948 320.886 192.644 320.395 192.43C319.904 192.217 319.403 192.11 318.891 192.11C318.432 192.11 318.074 192.201 317.818 192.382C317.562 192.564 317.434 192.809 317.434 193.118C317.434 193.46 317.61 193.727 317.962 193.919C318.314 194.111 318.859 194.314 319.595 194.527C320.385 194.773 321.025 195.007 321.516 195.231C322.017 195.456 322.45 195.792 322.812 196.24C323.175 196.688 323.357 197.275 323.357 198.001C323.357 198.673 323.175 199.265 322.812 199.778C322.45 200.29 321.932 200.69 321.26 200.978C320.598 201.256 319.824 201.394 318.939 201.394ZM327.741 194.879V201.25H325.131V190.045H327.452L331.182 196.112L334.912 190.045H337.233V201.25H334.624V194.863L331.934 199.233H330.43L327.741 194.879ZM342.888 190.045H345.593L349.883 201.25H347.066L346.346 199.265H342.136L341.415 201.25H338.582L342.888 190.045ZM345.737 197.312L344.233 193.118L342.744 197.312H345.737ZM351.222 190.045H355.816C356.67 190.045 357.411 190.2 358.041 190.509C358.681 190.819 359.172 191.256 359.514 191.822C359.855 192.387 360.026 193.044 360.026 193.791C360.026 194.548 359.85 195.21 359.498 195.776C359.146 196.331 358.649 196.758 358.009 197.056L358.585 198.561C358.745 199.041 359.055 199.281 359.514 199.281C359.738 199.281 359.951 199.228 360.154 199.121L360.73 200.946C360.133 201.224 359.535 201.362 358.937 201.362C357.55 201.362 356.648 200.711 356.232 199.409L355.576 197.505H353.847V201.25H351.222V190.045ZM355.56 195.488C356.136 195.488 356.584 195.344 356.904 195.055C357.225 194.767 357.385 194.372 357.385 193.871C357.385 193.348 357.23 192.948 356.92 192.67C356.611 192.382 356.173 192.238 355.608 192.238H353.815V195.488H355.56ZM364.047 192.478H360.878V190.045H369.842V192.478H366.672V201.25H364.047V192.478Z" fill="white"/>
<path d="M351.967 47.3388C354.211 46.9187 356.465 46.556 358.708 46.2544C363.894 45.5399 369.134 45.1378 374.399 45.1234C379.661 45.1055 384.954 45.5004 390.198 46.4519C395.438 47.3998 400.623 48.9509 405.528 51.274C410.43 53.5863 415 56.7424 418.889 60.649C422.768 64.5627 425.919 69.2088 428.256 74.232C429.43 76.7418 430.406 79.3486 431.216 82.0056L431.519 83.0037C431.616 83.3413 431.691 83.6895 431.778 84.0342C431.94 84.7272 432.138 85.4094 432.264 86.1096C432.383 86.8097 432.502 87.5135 432.621 88.2172C432.732 88.921 432.772 89.6355 432.847 90.3464C432.876 90.7019 432.927 91.0574 432.937 91.4128L432.963 92.4864C432.973 93.2009 433.024 93.919 432.97 94.6335C432.937 95.3481 432.912 96.0662 432.865 96.7807C432.786 97.4916 432.703 98.2062 432.624 98.9207C432.224 101.764 431.569 104.579 430.654 107.315C429.714 110.041 428.569 112.705 427.237 115.279C425.865 117.832 424.359 120.324 422.67 122.708C417.938 129.383 412.011 135.462 405.406 140.876C398.794 146.287 391.501 151.063 383.827 155.102C376.149 159.127 368.115 162.477 359.965 165.001C351.819 167.518 343.576 169.285 335.509 170.146C345.067 169.123 354.549 166.972 363.736 163.863C372.923 160.75 381.828 156.682 390.223 151.695C398.607 146.7 406.504 140.779 413.433 133.81C416.887 130.32 420.117 126.582 422.919 122.514C423.614 121.494 424.316 120.478 424.95 119.416C425.27 118.888 425.609 118.371 425.915 117.832L426.815 116.209L427.262 115.398L427.672 114.565L428.497 112.899L429.239 111.19L429.61 110.335C429.732 110.051 429.83 109.753 429.941 109.463L430.589 107.71C430.795 107.121 430.964 106.522 431.151 105.926C431.547 104.745 431.796 103.517 432.102 102.307C432.235 101.696 432.329 101.075 432.444 100.461L432.61 99.5382C432.66 99.2295 432.685 98.9171 432.725 98.6047L432.934 96.7376L433.024 94.8598C433.035 94.5474 433.056 94.235 433.063 93.919L433.042 92.9783C433.024 92.35 433.024 91.7216 432.988 91.0969C432.858 89.8473 432.797 88.5906 432.549 87.3555C432.437 86.7379 432.361 86.1132 432.214 85.5028L431.767 83.6716C431.63 83.054 431.436 82.4759 431.263 81.8871L430.996 81.0038L430.701 80.1277C429.153 75.46 426.995 70.9574 424.19 66.8714C421.395 62.7853 417.927 59.1445 413.984 56.168C410.041 53.1842 405.647 50.8647 401.084 49.1592C396.514 47.4537 391.782 46.3406 387.039 45.662C382.293 44.987 377.532 44.7428 372.815 44.8074C368.097 44.8757 363.422 45.2527 358.813 45.8631C362.515 45.188 366.62 44.6136 371.144 44.3443C375.663 44.0786 380.6 44.0929 385.898 44.7177C392.254 45.504 398.578 47.0372 404.516 49.6475C410.437 52.2578 415.954 55.9741 420.391 60.7244C422.631 63.0762 424.583 65.6757 426.275 68.4117C426.714 69.0868 427.093 69.7941 427.496 70.4907C427.888 71.1908 428.241 71.9089 428.616 72.6163C428.954 73.3416 429.307 74.0561 429.628 74.785C429.934 75.521 430.269 76.2427 430.546 76.9896C431.702 79.9554 432.649 82.9283 433.298 86.1563C433.939 89.3447 434.115 92.6121 433.931 95.8292C433.809 95.822 433.568 95.8112 433.449 95.8041C433.262 100.335 432.246 104.762 430.737 108.938C429.225 113.118 427.208 117.06 424.863 120.74C422.519 124.428 419.84 127.85 416.962 131.056C414.081 134.262 410.988 137.243 407.739 140.018C394.717 151.095 379.589 159.156 363.635 164.542C355.64 167.195 347.411 169.195 339.028 170.312C334.836 170.875 330.611 171.256 326.366 171.374C322.12 171.489 317.859 171.378 313.603 171.012C305.093 170.304 296.612 168.437 288.498 165.378C287.494 164.972 286.471 164.603 285.477 164.168C284.483 163.727 283.489 163.285 282.495 162.843C281.519 162.359 280.547 161.87 279.571 161.382C279.078 161.149 278.606 160.868 278.13 160.606L276.701 159.806C272.909 157.626 269.275 155.138 265.843 152.37C266.304 152.797 266.603 153.027 266.751 153.174C266.902 153.314 266.913 153.353 266.851 153.332C266.729 153.289 266.3 153.016 266.07 152.883C265.937 152.772 265.811 152.66 265.688 152.556C265.811 152.66 265.937 152.768 266.07 152.883C269.462 155.612 273.049 158.071 276.794 160.226C280.536 162.384 284.436 164.244 288.444 165.752C296.457 168.796 304.837 170.653 313.246 171.382C317.449 171.759 321.662 171.895 325.854 171.784C330.046 171.662 334.224 171.321 338.361 170.778C342.503 170.251 346.605 169.482 350.66 168.545C354.715 167.601 358.73 166.506 362.673 165.195C370.567 162.585 378.245 159.332 385.574 155.371C389.24 153.397 392.834 151.267 396.316 148.951C399.795 146.628 403.173 144.137 406.418 141.458C412.893 136.097 418.885 129.986 423.794 122.906C426.239 119.365 428.403 115.581 430.125 111.545C431.839 107.513 433.128 103.222 433.668 98.7591C433.229 102.217 432.372 105.592 431.209 108.823C430.038 112.051 428.594 115.164 426.884 118.091C425.184 121.028 423.279 123.818 421.226 126.478C419.166 129.135 416.933 131.631 414.614 134.029C405.265 143.569 394.228 151.142 382.491 157.113C379.563 158.624 376.556 159.978 373.531 161.278C372.004 161.895 370.492 162.549 368.947 163.113C368.176 163.403 367.409 163.701 366.635 163.981L364.305 164.797L363.138 165.199L361.96 165.576L359.609 166.326L357.236 167.012L356.051 167.357L354.855 167.669L352.464 168.29L350.058 168.85C348.459 169.242 346.835 169.529 345.218 169.863C341.973 170.448 338.714 170.972 335.43 171.306C332.149 171.683 328.847 171.874 325.541 171.974C318.925 172.107 312.274 171.741 305.712 170.61C302.425 170.093 299.176 169.317 295.957 168.448C294.361 167.96 292.748 167.525 291.178 166.947C290.389 166.667 289.593 166.416 288.815 166.111L286.482 165.184C285.697 164.89 284.94 164.534 284.177 164.193C283.417 163.845 282.643 163.522 281.894 163.148C280.403 162.384 278.883 161.669 277.439 160.811C274.49 159.206 271.709 157.314 268.976 155.364L266.985 153.82L265.987 153.048L265.029 152.23L263.113 150.592L262.94 150.445C262.868 150.391 262.793 150.301 262.746 150.248L262.505 149.975L262.083 149.501L261.241 148.553C260.963 148.233 260.675 147.925 260.405 147.598L259.609 146.607L258.813 145.616L258.417 145.117L258.043 144.6L256.552 142.528L255.169 140.37C253.386 137.451 251.852 134.349 250.675 131.096C249.493 127.843 248.676 124.442 248.28 120.981C247.887 117.523 247.912 114.015 248.327 110.568C248.737 107.118 249.529 103.728 250.628 100.454C251.722 97.1792 253.116 94.0232 254.733 90.9963C256.35 87.9695 258.176 85.0647 260.189 82.3072C264.208 76.7813 268.843 71.7438 273.885 67.1622C275.134 66.0025 276.434 64.9038 277.727 63.7907C279.045 62.7135 280.356 61.622 281.714 60.5915C284.407 58.5018 287.18 56.5091 290.033 54.6276C291.963 53.3278 294.923 51.4679 297.945 49.7193C300.955 47.9492 304.063 46.3478 306.134 45.285C314.532 41.2636 323.233 37.9064 332.16 35.2925C341.084 32.6893 350.246 30.8294 359.54 30C357.254 30.4991 360.776 30.6571 360.221 31.0556C360.084 31.1562 359.695 31.2675 358.903 31.4075C358.111 31.5403 356.919 31.7522 355.172 31.9928C354.301 32.1292 353.292 32.2908 352.129 32.4739C350.969 32.6786 349.648 32.894 348.16 33.174C345.182 33.727 341.523 34.5026 337.072 35.6551C337.105 35.7736 337.166 36.007 337.198 36.1255C346.097 33.8993 353.804 32.9478 359.648 32.6929C365.497 32.42 369.476 32.7899 371.165 33.0735C372.022 33.2315 372.303 33.3751 371.961 33.5008C371.792 33.5654 371.46 33.6229 370.974 33.6803C370.492 33.7414 369.851 33.8024 369.048 33.8598C368.241 33.9029 367.269 33.9963 366.127 34.0825C364.985 34.1507 363.671 34.3015 362.18 34.4272C359.202 34.7395 355.511 35.1848 351.095 35.9711C341.156 37.7161 330.565 40.7501 319.909 45.127C314.582 47.3208 309.238 49.8378 303.977 52.7246C298.704 55.5899 293.529 58.8429 288.524 62.4371C286.024 64.2359 283.586 66.1461 281.199 68.1281C278.822 70.1244 276.521 72.2213 274.299 74.4008C272.084 76.591 269.981 78.8926 267.986 81.2767C265.987 83.6608 264.14 86.1634 262.461 88.7594C260.783 91.3554 259.271 94.0483 257.989 96.8238C256.703 99.5993 255.68 102.472 254.928 105.387C253.419 111.218 253.141 117.261 254.236 123.01C254.47 124.047 254.65 125.096 254.967 126.116C255.115 126.625 255.245 127.142 255.407 127.652L255.936 129.164L256.202 129.918L256.512 130.658L257.132 132.137C257.355 132.625 257.603 133.099 257.834 133.584C258.079 134.061 258.288 134.557 258.568 135.017C260.628 138.794 263.21 142.316 266.142 145.558L266.689 146.169C266.787 146.276 266.873 146.373 266.848 146.345L267.096 146.557L268.353 147.627L269.61 148.697L270.917 149.705L272.224 150.714C272.66 151.052 273.121 151.35 273.571 151.669C274.479 152.291 275.361 152.951 276.305 153.515C280.003 155.896 283.914 157.953 287.973 159.669C296.104 163.091 304.816 165.123 313.653 165.953C322.498 166.782 331.472 166.43 340.32 165.13C346.403 164.208 352.5 162.85 358.521 161.03C364.532 159.185 370.499 156.962 376.275 154.251L378.443 153.231L380.586 152.158C381.306 151.806 382.012 151.433 382.714 151.048C383.42 150.668 384.13 150.298 384.828 149.91C386.215 149.109 387.627 148.341 388.984 147.49C389.668 147.07 390.363 146.668 391.037 146.23L393.061 144.923C395.733 143.142 398.373 141.304 400.886 139.304C403.411 137.322 405.87 135.253 408.19 133.042C410.516 130.844 412.76 128.554 414.816 126.123C416.879 123.699 418.828 121.182 420.553 118.539C422.274 115.893 423.805 113.143 425.076 110.299C426.344 107.455 427.374 104.518 428.018 101.52C428.674 98.5257 428.983 95.4809 428.897 92.4577C428.886 92.0807 428.893 91.7001 428.864 91.3266L428.76 90.1992L428.659 89.0718L428.475 87.9587L428.292 86.8456C428.238 86.4722 428.126 86.1132 428.043 85.7469C427.856 85.0145 427.723 84.2928 427.478 83.5459C426.614 80.5837 425.533 77.7077 424.219 74.9717C422.897 72.2357 421.316 69.6577 419.519 67.2664C418.194 65.5393 416.613 63.7476 414.751 62.0529C412.893 60.3545 410.772 58.7424 408.453 57.3026C406.123 55.8771 403.605 54.6204 400.984 53.5899C398.358 52.5702 395.654 51.73 392.953 51.1196C387.558 49.8665 382.257 49.3926 377.791 49.2561C373.319 49.1161 369.671 49.292 367.42 49.371C364.193 49.5362 362.508 49.6583 361.748 49.6224C360.988 49.5937 361.15 49.4357 361.625 49.231C369.012 48.3226 376.484 48.0497 383.842 48.7786C387.515 49.1484 391.163 49.7588 394.71 50.6959C396.486 51.1663 398.236 51.7085 399.954 52.3368C401.668 52.9724 403.346 53.6941 404.977 54.4983C408.247 56.0997 411.298 58.1104 414.063 60.4407C415.435 61.6184 416.735 62.8751 417.956 64.2072C419.177 65.5393 420.29 66.9647 421.334 68.4369C422.386 69.9054 423.304 71.4637 424.172 73.0471C425.033 74.6342 425.782 76.2858 426.48 77.9518C427.139 79.6358 427.773 81.3341 428.274 83.0756C428.562 83.9445 428.742 84.8062 428.962 85.6715L429.12 86.3214C429.171 86.5369 429.199 86.7595 429.239 86.9785L429.462 88.2926C429.57 88.8276 429.61 89.3734 429.66 89.9156C429.707 90.4577 429.772 90.9999 429.804 91.5457L429.84 93.183C429.84 93.4558 429.858 93.7287 429.855 94.0016L429.815 94.8203L429.736 96.4576L429.549 98.0877L429.455 98.9027L429.311 99.7106L429.019 101.326C428.101 105.617 426.513 109.768 424.485 113.699C422.443 117.627 419.923 121.315 417.135 124.783C414.337 128.252 411.247 131.491 407.948 134.51C401.347 140.553 393.958 145.738 386.139 150.133C378.314 154.524 370.049 158.132 361.521 160.908C369.865 158.211 378.022 154.7 385.793 150.388C393.558 146.068 400.951 140.945 407.595 134.923C414.215 128.905 420.121 121.965 424.348 114.055C426.434 110.094 428.036 105.89 428.998 101.538C429.106 100.992 429.196 100.443 429.297 99.8973L429.444 99.0751C429.495 98.8022 429.513 98.5221 429.545 98.2492L429.732 96.594C429.783 96.041 429.786 95.4845 429.819 94.9316C429.905 93.8221 429.819 92.7126 429.808 91.5995C429.783 91.0466 429.707 90.4936 429.66 89.9407C429.606 89.3877 429.567 88.8348 429.455 88.289L429.235 86.9749C429.196 86.7559 429.171 86.5369 429.12 86.3214L428.962 85.6751C428.746 84.8134 428.566 83.9481 428.281 83.0863C427.784 81.3485 427.157 79.6574 426.509 77.977C425.144 74.6449 423.477 71.4386 421.424 68.4907C419.382 65.5357 416.962 62.8572 414.254 60.5018C411.524 58.1679 408.514 56.1536 405.291 54.5343C402.078 52.8898 398.661 51.6367 395.164 50.6672C391.66 49.7193 388.066 49.0551 384.439 48.6673C377.179 47.8774 369.808 48.0533 362.519 48.8827C363.556 48.5093 364.564 48.1467 362.745 48.1036C362.745 48.1036 362.18 48.1718 361.258 48.2831C360.34 48.4052 359.065 48.5739 357.657 48.7965C354.837 49.2346 351.474 49.8917 349.248 50.3979C344.754 51.2525 341.685 51.9706 339.712 52.3763C337.742 52.7892 336.867 52.8934 336.809 52.7174C336.698 52.3799 339.867 50.9257 344.275 49.4716C346.533 48.7571 349.09 48.0138 351.974 47.3029L351.967 47.3388Z" fill="#F0C205"/>
</svg>
