<svg width="33" height="32" viewBox="0 0 33 32" fill="none" xmlns="http://www.w3.org/2000/svg">
<path fill-rule="evenodd" clip-rule="evenodd" d="M8.40078 8.11638C7.72089 8.11638 7.16973 8.66754 7.16973 9.34744V17.3001C7.16973 17.98 7.72089 18.5312 8.40078 18.5312H24.2659C24.9458 18.5312 25.497 17.98 25.497 17.3001V9.34744C25.497 8.66754 24.9458 8.11638 24.2659 8.11638H8.40078ZM5.13336 9.34744C5.13336 7.54289 6.59624 6.08002 8.40078 6.08002H24.2659C26.0705 6.08002 27.5334 7.54289 27.5334 9.34744V17.3001C27.5334 19.1046 26.0705 20.5675 24.2659 20.5675H8.40078C6.59624 20.5675 5.13336 19.1046 5.13336 17.3001V9.34744Z" fill="#002BFF"/>
<path fill-rule="evenodd" clip-rule="evenodd" d="M16.3133 23.9414C13.2551 23.9414 10.3482 24.6291 7.7046 25.8552L6.84785 24.0078C9.74701 22.6633 12.9452 21.905 16.3133 21.905C19.6786 21.905 22.9191 22.662 25.784 24.0102L24.9169 25.8527C22.3194 24.6304 19.3745 23.9414 16.3133 23.9414Z" fill="#002BFF"/>
</svg>
